HIERARCHY
ROOT root
{
    OFFSET 0.000000 0.000000 0.000000
    CHANNELS 6 Xposition Yposition Zposition Zrotation Xrotation Yrotation
}
MOTION
Frames:    96
Frame Time:    0.010000
22.961601    170.176559    31.423468    -44.164486    15.797036    -9.487351    
23.043581    170.140503    31.190067    -43.968655    15.927815    -9.716392    
23.088209    170.137756    30.897326    -44.101315    16.049139    -9.749585    
23.140631    170.122772    30.657555    -43.868877    16.216696    -9.958581    
23.175264    170.109482    30.338570    -43.825462    16.371725    -9.854856    
23.207109    170.108673    30.065363    -43.778305    16.412924    -9.785932    
23.255854    170.068527    29.807112    -43.659451    16.449587    -9.827953    
23.269470    170.042450    29.510475    -43.419552    16.485098    -9.853930    
23.268963    170.019394    29.208220    -43.250778    16.617107    -9.819261    
23.301643    170.014145    28.891998    -42.950108    16.648787    -9.885679    
23.351410    169.996643    28.583437    -42.907459    16.749977    -9.897250    
23.378738    169.996643    28.309355    -43.036636    16.810411    -9.851914    
23.423677    169.957397    27.980152    -42.719986    16.983025    -10.002451    
23.460670    169.947784    27.667978    -42.886543    17.014923    -9.999961    
23.486269    169.934616    27.369160    -42.779652    17.204103    -10.058979    
23.546019    169.917648    27.058887    -42.667747    17.337248    -10.181952    
23.559214    169.913223    26.730806    -42.658909    17.616156    -10.292078    
23.634308    169.896194    26.407913    -42.459217    17.622808    -10.423927    
23.690525    169.853012    26.110565    -42.213329    17.540066    -10.764621    
23.713188    169.866760    25.753139    -42.246918    17.459148    -10.713529    
23.747774    169.876450    25.433094    -42.118534    17.552952    -10.848140    
23.809191    169.874268    25.090084    -41.895561    17.753361    -11.066410    
23.820673    169.860016    24.775787    -41.654335    17.814054    -11.255097    
23.848242    169.851044    24.476212    -41.413010    17.864588    -11.543039    
23.927252    169.848663    24.141922    -41.384209    18.027538    -11.634899    
23.997833    169.829956    23.818918    -41.271515    18.159369    -11.640297    
24.061878    169.804611    23.499441    -41.089230    18.271694    -11.732433    
24.143621    169.776581    23.179382    -41.099594    18.540043    -11.885554    
24.221294    169.743134    22.878656    -41.293030    18.687098    -11.961817    
24.296421    169.711227    22.534842    -41.408600    18.868902    -11.814255    
24.392254    169.685410    22.247017    -41.395901    18.986977    -11.731113    
24.469637    169.641190    21.921053    -41.464626    19.207594    -11.799520    
24.516668    169.609695    21.597946    -41.460739    19.340410    -11.956845    
24.578213    169.568619    21.223530    -41.452820    19.335150    -11.928586    
24.637218    169.538162    20.878590    -41.342731    19.390934    -11.953422    
24.687788    169.500473    20.566788    -41.276699    19.464115    -12.082918    
24.713711    169.440781    20.242695    -41.116085    19.379244    -12.397610    
24.759802    169.415619    19.888409    -40.942451    19.441174    -12.615392    
24.819576    169.402237    19.539486    -40.916721    19.398127    -12.655386    
24.850842    169.404480    19.256426    -40.812702    19.570763    -12.849026    
24.950186    169.398483    18.977709    -40.918388    19.821541    -12.964344    
25.025829    169.361679    18.660669    -40.914997    20.122658    -13.097181    
25.052885    169.368057    18.375912    -41.073025    20.342241    -13.253330    
25.129307    169.353394    18.060471    -41.204887    20.384932    -13.110362    
25.218403    169.345520    17.789837    -41.209595    20.436026    -13.226892    
25.271929    169.331772    17.473103    -41.031734    20.406483    -13.329024    
25.293964    169.329330    17.157576    -41.006325    20.432665    -13.272273    
25.387228    169.337250    16.852196    -40.991371    20.539639    -13.389026    
25.438210    169.316040    16.535664    -40.821152    20.664366    -13.591785    
25.489143    169.325211    16.228235    -40.898987    20.585033    -13.478608    
25.565275    169.361160    15.892595    -41.098942    20.697285    -13.489869    
25.634182    169.351166    15.597510    -41.136234    20.743761    -13.634540    
25.689108    169.377014    15.306705    -41.103596    20.836246    -13.704843    
25.745630    169.401077    15.035944    -41.245747    20.966475    -13.647984    
25.784531    169.422012    14.717534    -41.018620    20.950863    -13.994741    
25.831387    169.438904    14.395632    -40.934990    20.863325    -14.297466    
25.868404    169.428223    14.107108    -40.585007    20.739204    -14.664150    
25.894182    169.461639    13.788706    -40.282490    20.775980    -14.827389    
25.927883    169.488937    13.506871    -40.201199    20.829189    -15.027017    
25.932396    169.512436    13.239634    -40.100105    20.876476    -15.216592    
25.966778    169.527191    12.968456    -40.359783    20.989491    -15.101626    
26.033575    169.536362    12.726042    -40.427769    21.188683    -15.142578    
26.043802    169.578415    12.458336    -40.477116    21.397461    -15.122174    
26.083618    169.574951    12.248540    -40.440746    21.371613    -15.115447    
26.143642    169.605606    11.979551    -40.612114    21.400675    -15.071690    
26.174480    169.599777    11.756268    -40.396290    21.386196    -15.201714    
26.191967    169.606949    11.499785    -40.399323    21.262516    -15.146439    
26.247349    169.650497    11.277231    -40.032291    21.362625    -15.351090    
26.280521    169.660645    11.039007    -40.008202    21.261627    -15.302376    
26.329985    169.714035    10.807320    -40.105831    21.413700    -15.276615    
26.379894    169.690521    10.595552    -40.209290    21.630209    -15.281207    
26.429657    169.701065    10.396811    -40.350262    21.552418    -15.274617    
26.505829    169.701233    10.191936    -40.154720    21.702486    -15.535166    
26.578955    169.737381    9.983833    -40.363846    21.873222    -15.562723    
26.624674    169.736282    9.803202    -40.307823    22.001911    -15.834721    
26.684547    169.751938    9.603944    -40.516243    22.113701    -15.810506    
26.765278    169.753387    9.413211    -40.304840    21.985748    -16.118324    
26.807583    169.772110    9.197461    -40.192673    22.144739    -16.335087    
26.857906    169.827682    9.010630    -40.145325    22.149885    -16.472244    
26.926678    169.827362    8.779764    -39.902756    22.156391    -16.758158    
26.991058    169.878952    8.576539    -39.933750    22.219378    -16.860882    
27.015213    169.855530    8.391373    -39.590992    22.035055    -17.172127    
27.074936    169.901642    8.162786    -39.602455    21.967381    -17.153044    
27.125942    169.925171    8.009034    -39.442387    21.935129    -17.308126    
27.183605    169.921173    7.839549    -39.195251    22.022736    -17.534819    
27.239174    169.907303    7.713230    -39.490990    22.222773    -17.472092    
27.308983    169.942719    7.583446    -39.238960    22.308599    -17.723076    
27.419975    169.983856    7.416467    -39.374580    22.490433    -17.582571    
27.461693    169.990295    7.309013    -39.647892    22.535320    -17.388885    
27.541813    169.989914    7.194695    -39.592525    22.697714    -17.508287    
27.571449    169.975403    7.088137    -39.556934    22.684036    -17.659962    
27.632948    169.980042    6.944630    -39.681042    22.888405    -17.527351    
27.698092    169.977203    6.789292    -39.474262    22.946129    -17.550114    
27.764870    169.961899    6.662491    -39.108555    23.104805    -17.684502    
27.837826    169.951889    6.534579    -39.364620    23.338102    -17.520582    
27.893997    169.953949    6.379753    -38.827774    23.362045    -17.859015    
